<svg id="Layer_1" data-name="Layer 1" xmlns="http://www.w3.org/2000/svg" viewBox="0 0 1670.6 239.1"><defs><style>.cls-1{fill:#fdfdfd;}.cls-2{fill:#fcfcfd;}.cls-3{fill:#c9e9f6;}.cls-4{fill:#bfc0c0;}.cls-5{fill:#abddf2;}.cls-6{fill:#2d2e2f;}.cls-7{fill:#060809;}.cls-8{fill:#07090a;}.cls-9{fill:#28aae0;}.cls-10{fill:#090b0c;}</style></defs><path class="cls-1" d="M584.6,239.1H431.8v-1c.2-2,.6-4,.6-6,0-20.3.3-40.6-.1-60.8-.2-7.4,1.1-13.3,7-18,2.3-1.8,2.8-4,2.1-7.2-4.6-21.9-4.3-43.6,3.4-64.8,13.2-35.9,39.1-59.1,74-73.2l4.3-1.9c-10.1-.7-20-.9-29.8-.6a9,9,0,0,0-5.9,3.1q-33.6,40.5-66.9,81.4c-6.6,7.9-12.7,16.1-19.3,24.5-2.9-3.8-5.5-7.4-8.4-10.8-27.5-31.6-55-63.3-82.7-94.8a11.1,11.1,0,0,0-7.2-3.4c-24.5-.2-48.9-.1-73.3-.1-1.3,0-2.5.3-4.4.5l3.1,3.6Q295.8,83.4,363.4,157a13.1,13.1,0,0,1,3.7,9.5c-.1,23.8.1,47.7.1,71.5v1.1H65.6V175.9H204.6c21.8-.1,42.8-4.1,62.5-13.5s34.5-22.9,41.8-43.9c1-3,.5-4.9-1.6-7.2Q261.1,61.1,215.2,10.5a14.3,14.3,0,0,0-11.5-5c-50.6,0-101.2-.1-151.8.1a9.3,9.3,0,0,0-6.3,3.1c-6.7,8-13,16.2-19.4,24.4L6.4,58.2H13c63.6,0,127.1-.1,190.7.2a74.8,74.8,0,0,1,22.1,3.2c14.1,4.3,22,15.6,22.2,29.8s-7.6,24.5-20.9,29.1a65.8,65.8,0,0,1-21.5,3.8c-58.1.3-116.2.2-174.3.2l-30.2.2H0V0H1670.6V239.1H1274.9a.8.8,0,0,0,0-.9c-.2-.6-.2-1.4-.6-1.8-24.5-24.9-46.9-51.9-75.1-73-.6-.5-1-1.1-1.9-2l4.5-1c17.6-2.7,33.4-9.2,46.2-22.1,27-27.5,32.7-89.7-20.9-116.7C1203.6,9.7,1178.4,6,1152.7,5.7c-52-.4-103.9-.1-155.9,0a8.9,8.9,0,0,0-6.2,3.1c-12.2,15.3-24.2,30.8-36.2,46.3a24.8,24.8,0,0,0-1.9,3.1h200c10.2,0,20.2,1.1,29.5,5.3,11.9,5.4,18.2,14.6,18.4,27.6s-5.9,20.6-16.3,26.3-19.5,7.1-30,7.1H946.5v23.6q0,45,.2,89.9v1.1H935.4a1.4,1.4,0,0,0,0-.9,52.9,52.9,0,0,0,.5-5.6V114.3l6.4-.8L928.1,92.9c-16-23.1-31.8-46.3-48.2-69.1-13.6-19-32.3-26-55.2-20.7-13.9,3.3-23.5,12.9-31.4,24q-65.1,91.1-129.8,182.2c-6.6,9.4-13.3,18.7-20.4,28.7l2.7.2c23.6,0,47.2.1,70.8-.1,1.8,0,4.2-1.8,5.4-3.5q55.7-78.1,111.2-156.5c1.1-1.6,2.3-3.1,3.6-4.8l78.8,114.5c-3.6-.3-7.5-.8-11.4-.8-32.6-.3-65.3-.6-97.9-.7-1.7,0-4,1.5-5.1,3-8.3,11-16.4,22.2-24.5,33.4-3.6,5-7.1,10.2-10.6,15.4a1.7,1.7,0,0,0,0,1H629.7a2.8,2.8,0,0,0,.1-.9l37.5-52.1c-26.9,0-52.5.5-78.1-.2a108.4,108.4,0,0,1-31.5-5.4c-24.2-8.3-40.4-24.6-43.3-51-2.7-24.3,7.3-43.4,27.2-57.2,14.9-10.4,32-14,49.9-14.1H705.3c4.3.1,6.9-1.2,9.2-4.6,3.9-5.6,8.3-10.9,12.4-16.3L751.2,5.6H588.4a177.9,177.9,0,0,0-59.2,9.7c-31.4,11-56.4,29.7-70.7,60.3-22.4,47.7-5.2,105.2,39.9,135.9,26,17.6,55,25.7,86.1,26.8C584.5,238.5,584.6,238.8,584.6,239.1ZM1669.2,5.6H1429.4c-8.1,0-17.3-2.3-23.8.9s-10.6,12-15.6,18.4c-8.4,10.8-16.7,21.7-25.8,33.5h109.7V238h64.7V58.2h5.6c26.7,0,53.3.1,80-.1,1.9,0,4.6-.6,5.7-2C1642.9,39.7,1655.6,23.1,1669.2,5.6ZM1277.6,98c-5.3,34.5-24.3,57.2-55,68.2,4.6,5.3,9.5,11.2,14.8,16.7,16.7,17.5,33.4,35,50.3,52.3,1.5,1.5,3.9,2.9,5.9,2.9q63.3.3,126.7,0a8.2,8.2,0,0,0,5.4-2.6q17.7-22.5,35.1-45.2a31.6,31.6,0,0,0,2.6-4.3H1261.9V142.9h147.8a8.1,8.1,0,0,0,7.6-3.6c7.2-9.5,14.7-18.8,22.1-28.2L1449.6,98ZM1274,58.2c25,0,50,.1,74.9-.1,1.4,0,3.3-1.5,4.3-2.7,12.1-15.4,24-30.9,36-46.4a28.4,28.4,0,0,0,1.8-3.1H1217.3C1244,16.4,1263.9,32.1,1274,58.2Z"/><path class="cls-2" d="M1189.7,239.1h-161l-5.7-9.8-1.4.6c.4,3,.7,6.1,1,9.2h-11.3a4.1,4.1,0,0,0-.1-1.1V173.9H1130c3.9-.1,6.2,1.2,8.6,4.1,16.9,20.2,34,40.2,51.1,60.3Z"/><path class="cls-3" d="M65.5,237.8v1.3H0V124.6H1.1V237.8Z"/><path class="cls-4" d="M935.4,238.2a1.4,1.4,0,0,1,0,.9H766.1a1.7,1.7,0,0,1,0-1Z"/><path class="cls-4" d="M1189.7,239.1v-.9h85.2a.7.7,0,0,1,0,.9Z"/><path class="cls-5" d="M367.2,239.1V238h64.6v1Z"/><path class="cls-4" d="M1011.2,238a4.1,4.1,0,0,1,.1,1.1H946.7V238Z"/><path class="cls-6" d="M1022.6,239.1c-.3-3.1-.6-6.2-1-9.2l1.4-.6,5.7,9.8Z"/><path class="cls-4" d="M629.8,238.2a2.8,2.8,0,0,1-.1.9H584.6c0-.3-.1-.6-.1-.8Z"/><path class="cls-7" d="M1011.2,238H946.7q-.2-44.9-.2-89.9V124.5h207.6c10.5,0,20.6-2,30-7.1s16.5-14.1,16.3-26.3-6.5-22.2-18.4-27.6c-9.3-4.2-19.3-5.3-29.5-5.3h-200a24.8,24.8,0,0,1,1.9-3.1c12-15.5,24-31,36.2-46.3a8.9,8.9,0,0,1,6.2-3.1c52-.1,103.9-.4,155.9,0,25.7.3,50.9,4,74.4,15.9,53.6,27,47.9,89.2,20.9,116.7-12.8,12.9-28.6,19.4-46.2,22.1l-4.5,1c.9.9,1.3,1.5,1.9,2,28.2,21.1,50.6,48.1,75.1,73,.4.4.4,1.2.6,1.8h-85.2c-17.1-20.1-34.2-40.1-51.1-60.3-2.4-2.9-4.7-4.2-8.6-4.1H1011.2Z"/><path class="cls-8" d="M935.4,238.2H766.1c3.5-5.2,7-10.4,10.6-15.4,8.1-11.2,16.2-22.4,24.5-33.4,1.1-1.5,3.4-3,5.1-3,32.6.1,65.3.4,97.9.7,3.9,0,7.8.5,11.4.8L836.8,73.3c-1.3,1.7-2.5,3.2-3.6,4.8Q777.6,156.4,722,234.6c-1.2,1.7-3.6,3.5-5.4,3.5-23.6.2-47.2.1-70.8.1l-2.7-.2c7.1-10,13.8-19.3,20.4-28.7q64.9-91.1,129.8-182.2c7.9-11.1,17.5-20.7,31.4-24,22.9-5.3,41.6,1.7,55.2,20.7,16.4,22.8,32.2,46,48.2,69.1l14.2,20.6-6.4.8V232.6A52.9,52.9,0,0,1,935.4,238.2Z"/><path class="cls-9" d="M65.5,237.8H1.1V124.7l30.2-.2c58.1,0,116.2.1,174.3-.2a65.8,65.8,0,0,0,21.5-3.8c13.3-4.6,21.1-16.3,20.9-29.1s-8.1-25.5-22.2-29.8a74.8,74.8,0,0,0-22.1-3.2c-63.6-.3-127.1-.2-190.7-.2H6.4L26.2,33.1c6.4-8.2,12.7-16.4,19.4-24.4a9.3,9.3,0,0,1,6.3-3.1c50.6-.2,101.2-.1,151.8-.1a14.3,14.3,0,0,1,11.5,5Q261,61.2,307.3,111.3c2.1,2.3,2.6,4.2,1.6,7.2-7.3,21-22.3,34.6-41.8,43.9s-40.7,13.4-62.5,13.5H65.5Z"/><path class="cls-8" d="M629.8,238.2H584.5c-31.1-1.1-60.1-9.2-86.1-26.8-45.1-30.7-62.3-88.2-39.9-135.9,14.3-30.6,39.3-49.3,70.7-60.3a177.9,177.9,0,0,1,59.2-9.7H751.2L726.9,37.4c-4.1,5.4-8.5,10.7-12.4,16.3-2.3,3.4-4.9,4.7-9.2,4.6H591.5c-17.9.1-35,3.7-49.9,14.1-19.9,13.8-29.9,32.9-27.2,57.2,2.9,26.4,19.1,42.7,43.3,51a108.4,108.4,0,0,0,31.5,5.4c25.6.7,51.2.2,78.1.2Z"/><path class="cls-7" d="M1669.2,5.6c-13.6,17.5-26.3,34.1-39.3,50.5-1.1,1.4-3.8,2-5.7,2-26.7.2-53.3.1-80,.1h-5.6V238h-64.7V58.4H1364.2c9.1-11.8,17.4-22.7,25.8-33.5,5-6.4,9-15.1,15.6-18.4s15.7-.9,23.8-.9h239.8Z"/><path class="cls-9" d="M431.8,238.1H367.2c0-23.8-.2-47.7-.1-71.5a13.1,13.1,0,0,0-3.7-9.5Q295.8,83.4,228.3,9.6L225.2,6c1.9-.2,3.1-.5,4.4-.5,24.4,0,48.8-.1,73.3.1A11.1,11.1,0,0,1,310.1,9c27.7,31.5,55.2,63.2,82.7,94.8,2.9,3.4,5.5,7,8.4,10.8,6.6-8.4,12.7-16.6,19.3-24.5q33.3-40.8,66.9-81.4a9,9,0,0,1,5.9-3.1c9.8-.3,19.7-.1,29.8.6l-4.3,1.9c-34.9,14.1-60.8,37.3-74,73.2-7.7,21.2-8,42.9-3.4,64.8.7,3.2.2,5.4-2.1,7.2-5.9,4.7-7.2,10.6-7,18,.4,20.2.1,40.5.1,60.8C432.4,234.1,432,236.1,431.8,238.1Z"/><path class="cls-8" d="M1277.6,98h172l-10.2,13.1c-7.4,9.4-14.9,18.7-22.1,28.2a8.1,8.1,0,0,1-7.6,3.6H1261.9V186h201.5a31.6,31.6,0,0,1-2.6,4.3q-17.4,22.6-35.1,45.2a8.2,8.2,0,0,1-5.4,2.6q-63.3.3-126.7,0c-2,0-4.4-1.4-5.9-2.9-16.9-17.3-33.6-34.8-50.3-52.3-5.3-5.5-10.2-11.4-14.8-16.7C1253.3,155.2,1272.3,132.5,1277.6,98Z"/><path class="cls-10" d="M1274,58.2c-10.1-26.1-30-41.8-56.7-52.3H1391a28.4,28.4,0,0,1-1.8,3.1c-12,15.5-23.9,31-36,46.4-1,1.2-2.9,2.7-4.3,2.7C1324,58.3,1299,58.2,1274,58.2Z"/></svg>