<?xml version="1.0" encoding="utf-8"?>
<!-- Generator: Adobe Illustrator 19.2.1, SVG Export Plug-In . SVG Version: 6.00 Build 0)  -->
<svg version="1.1" id="layer" xmlns="http://www.w3.org/2000/svg" xmlns:xlink="http://www.w3.org/1999/xlink" x="0px" y="0px"
	 viewBox="0 0 652 652" style="enable-background:new 0 0 652 652;" xml:space="preserve">
<style type="text/css">
	.st0{fill:#36C5F0;}
	.st1{fill:#2EB67D;}
	.st2{fill:#ECB22E;}
	.st3{fill:#E01E5A;}
</style>
<path d="M208.7,363.9l7.3-17.1c8,5.9,18.4,9,28.8,9c7.6,0,12.5-3,12.5-7.5c-0.2-12.5-46-2.8-46.4-34.3c-0.2-16,14.1-28.4,34.2-28.4
	c12,0,24,3,32.5,9.7l-6.8,17.4c-7.8-5-17.5-8.5-26.7-8.5c-6.3,0-10.4,3-10.4,6.8c0.2,12.4,46.4,5.6,46.9,35.7
	c0,16.4-13.9,27.8-33.7,27.8C232.3,374.7,218.9,371.2,208.7,363.9 M499.2,340.7c-3.8,6.7-10.8,10.8-18.4,10.8
	c-11.7,0-21.2-9.5-21.2-21.2s9.5-21.2,21.2-21.2c7.6,0,14.7,4.1,18.4,10.8l20.3-11.3c-7.6-13.6-22.1-22.8-38.7-22.8
	c-24.5,0-44.4,19.9-44.4,44.5c0,24.6,19.9,44.5,44.4,44.5c16.6,0,31.1-9.2,38.7-22.8L499.2,340.7z M293.8,372.9h25.4V248.7h-25.4
	L293.8,372.9z M532.3,248.7v124.2h25.4v-37.2l30.1,37.2h32.4L582,328.7l35.4-41.3h-31l-28.7,34.3v-73.1H532.3z M397.3,287.5v10.1
	c-4.2-7-14.4-11.8-25.2-11.8c-22.2,0-39.8,19.7-39.8,44.4c0,24.7,17.5,44.6,39.8,44.6c10.8,0,21-4.9,25.2-11.8v10.1h25.4v-85.5
	H397.3z M397.3,340.8c-3.6,6.1-11.3,10.6-19.8,10.6c-11.7,0-21.2-9.5-21.2-21.2s9.5-21.2,21.2-21.2c8.5,0,16.2,4.7,19.8,11V340.8z"
	/>
<path class="st0" d="M74.7,246c-8.2,0-14.9,6.7-14.9,14.9c0,8.2,6.7,14.9,14.9,14.9c0,0,0,0,0,0h14.9v-14.9
	C89.6,252.7,83,246,74.7,246 M74.7,285.7H35.1c-8.2,0-14.9,6.7-14.9,14.9c0,8.2,6.7,14.9,14.9,14.9h39.7c8.2,0,14.9-6.7,14.9-14.9
	C89.6,292.4,83,285.7,74.7,285.7"/>
<path class="st1" d="M169,300.6c0-8.2-6.7-14.9-14.9-14.9s-14.9,6.7-14.9,14.9v14.9h14.9C162.3,315.6,169,308.9,169,300.6
	 M129.3,300.6v-39.8c0-8.2-6.7-14.9-14.9-14.9c-8.2,0-14.9,6.7-14.9,14.9v39.8c0,8.2,6.7,14.9,14.9,14.9
	C122.7,315.6,129.3,308.9,129.3,300.6"/>
<path class="st2" d="M114.4,395.1c8.2,0,14.9-6.7,14.9-14.9c0-8.2-6.7-14.9-14.9-14.9H99.5v14.9C99.5,388.4,106.2,395.1,114.4,395.1
	 M114.4,355.3h39.7c8.2,0,14.9-6.7,14.9-14.9c0-8.2-6.7-14.9-14.9-14.9h-39.7c-8.2,0-14.9,6.7-14.9,14.9
	C99.5,348.6,106.2,355.3,114.4,355.3C114.4,355.3,114.4,355.3,114.4,355.3"/>
<path class="st3" d="M20.2,340.4c0,8.2,6.7,14.9,14.9,14.9c0,0,0,0,0,0c8.2,0,14.9-6.7,14.9-14.9v-14.9H35.1
	C26.8,325.5,20.2,332.2,20.2,340.4 M59.9,340.4v39.8c0,8.2,6.7,14.9,14.9,14.9c8.2,0,14.9-6.7,14.9-14.9v-39.8
	c0-8.2-6.7-14.9-14.9-14.9c0,0,0,0,0,0C66.5,325.5,59.9,332.2,59.9,340.4"/>
</svg>
