<svg xmlns="http://www.w3.org/2000/svg" viewBox="0 0 510.98 118.98"><defs><style>.cls-1{fill:#3ea6be;}.cls-2{fill:#324057;}.cls-3{fill:#231f20;}</style></defs><g id="Layer_2" data-name="Layer 2"><g id="Layer_1-2" data-name="Layer 1"><path class="cls-1" d="M6.47,0a6.47,6.47,0,1,0,6.46,6.47A6.46,6.46,0,0,0,6.47,0Z"/><path class="cls-1" d="M24.14,0A6.47,6.47,0,1,0,30.6,6.47,6.47,6.47,0,0,0,24.14,0Z"/><path class="cls-1" d="M6.47,17.67a6.47,6.47,0,1,0,6.46,6.47A6.47,6.47,0,0,0,6.47,17.67Z"/><path class="cls-1" d="M24.14,17.67a6.47,6.47,0,1,0,6.46,6.47A6.47,6.47,0,0,0,24.14,17.67Z"/><path class="cls-1" d="M6.47,35.35a6.47,6.47,0,1,0,6.46,6.46A6.46,6.46,0,0,0,6.47,35.35Z"/><path class="cls-1" d="M24.14,35.35a6.47,6.47,0,1,0,6.46,6.46A6.47,6.47,0,0,0,24.14,35.35Z"/><path class="cls-1" d="M24.14,53a6.47,6.47,0,1,0,6.46,6.47A6.47,6.47,0,0,0,24.14,53Z"/><path class="cls-1" d="M6.47,70.7a6.47,6.47,0,1,0,6.46,6.46A6.46,6.46,0,0,0,6.47,70.7Z"/><path class="cls-1" d="M24.14,70.7a6.47,6.47,0,1,0,6.46,6.46A6.47,6.47,0,0,0,24.14,70.7Z"/><path class="cls-1" d="M6.47,88.37a6.47,6.47,0,1,0,6.46,6.47A6.47,6.47,0,0,0,6.47,88.37Z"/><path class="cls-1" d="M24.14,88.37a6.47,6.47,0,1,0,6.46,6.47A6.47,6.47,0,0,0,24.14,88.37Z"/><path class="cls-1" d="M6.47,106.05a6.47,6.47,0,1,0,6.46,6.46A6.46,6.46,0,0,0,6.47,106.05Z"/><path class="cls-1" d="M24.14,106.05a6.47,6.47,0,1,0,6.46,6.46A6.47,6.47,0,0,0,24.14,106.05Z"/><path class="cls-1" d="M41.81,17.67a6.47,6.47,0,1,0,6.47,6.47A6.47,6.47,0,0,0,41.81,17.67Z"/><path class="cls-1" d="M41.81,35.35a6.47,6.47,0,1,0,6.47,6.46A6.46,6.46,0,0,0,41.81,35.35Z"/><path class="cls-1" d="M41.81,70.7a6.47,6.47,0,1,0,6.47,6.46A6.46,6.46,0,0,0,41.81,70.7Z"/><path class="cls-1" d="M41.81,88.37a6.47,6.47,0,1,0,6.47,6.47A6.47,6.47,0,0,0,41.81,88.37Z"/><path class="cls-2" d="M112.51,119a6.47,6.47,0,1,0-6.47-6.47A6.47,6.47,0,0,0,112.51,119Z"/><path class="cls-2" d="M94.84,119a6.47,6.47,0,1,0-6.47-6.47A6.47,6.47,0,0,0,94.84,119Z"/><path class="cls-2" d="M112.51,101.3A6.47,6.47,0,1,0,106,94.84,6.47,6.47,0,0,0,112.51,101.3Z"/><path class="cls-2" d="M94.84,101.3a6.47,6.47,0,1,0-6.47-6.46A6.46,6.46,0,0,0,94.84,101.3Z"/><path class="cls-2" d="M112.51,83.63A6.47,6.47,0,1,0,106,77.16,6.47,6.47,0,0,0,112.51,83.63Z"/><path class="cls-2" d="M94.84,83.63a6.47,6.47,0,1,0-6.47-6.47A6.47,6.47,0,0,0,94.84,83.63Z"/><path class="cls-2" d="M94.84,66a6.47,6.47,0,1,0-6.47-6.46A6.46,6.46,0,0,0,94.84,66Z"/><path class="cls-2" d="M112.51,48.28A6.47,6.47,0,1,0,106,41.81,6.47,6.47,0,0,0,112.51,48.28Z"/><path class="cls-2" d="M94.84,48.28a6.47,6.47,0,1,0-6.47-6.47A6.47,6.47,0,0,0,94.84,48.28Z"/><path class="cls-2" d="M112.51,30.6A6.47,6.47,0,1,0,106,24.14,6.47,6.47,0,0,0,112.51,30.6Z"/><path class="cls-2" d="M94.84,30.6a6.47,6.47,0,1,0-6.47-6.46A6.46,6.46,0,0,0,94.84,30.6Z"/><path class="cls-2" d="M112.51,12.93A6.47,6.47,0,1,0,106,6.47,6.47,6.47,0,0,0,112.51,12.93Z"/><path class="cls-2" d="M94.84,12.93a6.47,6.47,0,1,0-6.47-6.46A6.46,6.46,0,0,0,94.84,12.93Z"/><path class="cls-2" d="M77.16,101.3a6.47,6.47,0,1,0-6.46-6.46A6.47,6.47,0,0,0,77.16,101.3Z"/><path class="cls-2" d="M77.16,83.63a6.47,6.47,0,1,0-6.46-6.47A6.47,6.47,0,0,0,77.16,83.63Z"/><path class="cls-2" d="M77.16,66a6.47,6.47,0,1,0-6.46-6.46A6.47,6.47,0,0,0,77.16,66Z"/><path class="cls-2" d="M77.16,48.28a6.47,6.47,0,1,0-6.46-6.47A6.47,6.47,0,0,0,77.16,48.28Z"/><path class="cls-2" d="M77.16,30.6a6.47,6.47,0,1,0-6.46-6.46A6.47,6.47,0,0,0,77.16,30.6Z"/><path class="cls-2" d="M59.49,83.63A6.47,6.47,0,1,0,53,77.16,6.47,6.47,0,0,0,59.49,83.63Z"/><path class="cls-2" d="M59.49,66A6.47,6.47,0,1,0,53,59.49,6.46,6.46,0,0,0,59.49,66Z"/><path class="cls-2" d="M59.49,48.28A6.47,6.47,0,1,0,53,41.81,6.47,6.47,0,0,0,59.49,48.28Z"/><path class="cls-2" d="M41.81,66a6.47,6.47,0,1,0-6.46-6.46A6.47,6.47,0,0,0,41.81,66Z"/><path class="cls-3" d="M148.49,33h18.82V102H148.49Z"/><path class="cls-3" d="M179.88,33H198.7V45h.39c2.06-8.5,7.67-13.47,15.72-13.47a21.54,21.54,0,0,1,5.42.71V48.81a19.44,19.44,0,0,0-6.83-1c-9.29,0-14.7,5.54-14.7,15.59V102H179.88Z"/><path class="cls-3" d="M223.13,67.43v-.06c0-22.11,13.21-35.84,33.9-35.84,18.76,0,30.68,11.54,31.39,26.49v.45H271l-.13-.58c-1.16-6.57-5.73-11.6-13.53-11.6-9.22,0-15,7.93-15,21.14v.07c0,13.53,5.8,21.2,15.08,21.2,7.54,0,12.25-4.64,13.54-11.6l.06-.58h17.53v.39c-.9,15.08-12.82,26.55-31.26,26.55C236.15,103.46,223.13,89.73,223.13,67.43Z"/><path class="cls-3" d="M297.25,77.55V33h18.82V73.62c0,9,4.25,14.25,12.7,14.25s13.79-6.19,13.79-15.22V33h18.82V102H342.56V90.64h-.39c-3.54,7.92-10.63,12.82-21.07,12.82C305.89,103.46,297.25,93.73,297.25,77.55Z"/><path class="cls-3" d="M374,33h18.82V102H374Z"/><path class="cls-3" d="M410.3,82.71V47.13h-9.6V33h9.6V16.06h19V33H442V47.13H429.31V80.65c0,6.44,2.9,8.63,8.58,8.63A32.34,32.34,0,0,0,442,89v13.79a57.91,57.91,0,0,1-9.09.71C417.52,103.46,410.3,97.53,410.3,82.71Z"/><path class="cls-3" d="M449.49,81.55l-.07-.58h18.37l.13.58c1.23,5.41,5.29,8.57,12.83,8.57,7.09,0,11.41-2.77,11.41-7.22v-.06c0-3.68-2.32-5.8-9.09-7.29l-11.73-2.44c-13.41-2.84-20.18-9.54-20.18-19.86v-.06c0-13.15,11.35-21.66,28.94-21.66,18.37,0,28.62,9.74,29.07,21.85V54H491.83l-.06-.52c-.65-5-4.71-8.7-11.67-8.7-6.51,0-10.57,2.9-10.57,7.35v.06c0,3.55,2.39,5.87,9.35,7.35l11.73,2.51C505.05,65.11,511,70.79,511,81V81c0,13.54-12.44,22.43-30.23,22.43C461.61,103.46,451,94.63,449.49,81.55Z"/></g></g></svg>